Coordinates
version=1
nRows=8
nColumns=40
inDegrees=yes

Units are S.I. units (second, meters, Newtons, ...)
Angles are in degrees.

endheader
time	pelvis_tilt	pelvis_list	pelvis_rotation	pelvis_tx	pelvis_ty	pelvis_tz	hip_flexion_r	hip_adduction_r	hip_rotation_r	knee_angle_r	knee_angle_r_beta	ankle_angle_r	subtalar_angle_r	mtp_angle_r	hip_flexion_l	hip_adduction_l	hip_rotation_l	knee_angle_l	knee_angle_l_beta	ankle_angle_l	subtalar_angle_l	mtp_angle_l	lumbar_extension	lumbar_bending	lumbar_rotation	arm_flex_r	arm_add_r	arm_rot_r	elbow_flex_r	pro_sup_r	wrist_flex_r	wrist_dev_r	arm_flex_l	arm_add_l	arm_rot_l	elbow_flex_l	pro_sup_l	wrist_flex_l	wrist_dev_l
      1.32000000	     -0.92416578	     -0.49752634	      6.82214061	      0.22566593	      0.93735083	      1.40246141	     24.19468523	     -5.45028385	    -24.98934907	    -16.21938464	     -0.28308166	     -0.15550675	      0.40501643	      5.88154817	    -15.50161867	      2.18930383	     15.90569943	    -13.63717313	     -0.23801357	      1.54815150	    -12.79087159	    -14.48540741	     -3.94326403	     -0.25075944	    -10.78574841	     -6.43888436	     -9.40282654	    -15.00386282	     13.10713752	     89.95437384	      0.00000000	      0.00000000	     15.32113421	     15.78809492	      3.77710461	     38.69135114	     89.95437384	      0.00000000	      0.00000000
      1.33000000	     -0.93713203	     -0.47930058	      6.79600479	      0.23783421	      0.93695476	      1.40425339	     23.79839206	     -5.36373216	    -24.85551323	    -15.79071463	     -0.27559996	     -2.59517234	      1.30093573	      6.07640306	    -15.69453386	      2.50165487	     15.67359628	    -14.62564933	     -0.25526574	      0.85951216	    -12.37321863	    -14.22187777	     -3.59535334	     -0.36111732	    -10.65324386	     -6.61638912	     -9.33278186	    -15.06106805	     13.04821575	     89.95437384	      0.00000000	      0.00000000	     14.38674408	     15.49956306	      4.08295838	     37.78572156	     89.95437384	      0.00000000	      0.00000000
      1.34000000	     -0.45211408	     -1.44067290	      6.98455289	      0.25058601	      0.93755120	      1.40642028	     22.80235033	     -4.40959757	    -25.51170695	    -15.61786320	     -0.27258313	     -4.37022915	      2.92278592	      4.61969394	    -16.07055961	      4.25416762	     16.27354481	    -16.19568534	     -0.28266803	      0.02906619	    -13.06150036	    -14.38702345	     -3.68146749	      0.68957894	    -10.70612801	     -6.65919821	     -9.33035024	    -15.59761295	     12.99479487	     89.95437384	      0.00000000	      0.00000000	     13.38936944	     14.88087847	      5.23303552	     36.79572689	     89.95437384	      0.00000000	      0.00000000
      1.35000000	     -0.47676192	     -1.59445184	      6.92051102	      0.26308604	      0.93762807	      1.40823836	     23.03303994	     -4.50448523	    -25.70524315	    -17.55780122	     -0.30644144	     -4.82913068	      2.05069082	      3.92439056	    -15.93520200	      4.84156608	     16.32054548	    -17.71627198	     -0.30920728	     -1.03489104	    -12.23521510	    -13.85663755	     -3.26419689	      0.77746887	    -10.52824873	     -6.77764399	     -9.30860014	    -15.66119981	     12.87152866	     89.95437384	      0.00000000	      0.00000000	     12.39775396	     14.45808491	      5.69198181	     35.57576268	     89.95437384	      0.00000000	      0.00000000
      1.36000000	     -0.55297312	     -1.83888037	      6.77037953	      0.27510850	      0.93808741	      1.41058374	     23.27855173	     -4.18716417	    -25.00220420	    -19.28029252	     -0.33650459	     -4.30873114	      1.68234403	      3.23222433	    -15.45806775	      5.54195954	     16.26898463	    -19.67232232	     -0.34334680	     -2.13028376	    -11.15982108	    -13.26968547	     -2.88321223	      0.92682465	    -10.23966899	     -6.78869080	     -9.24099906	    -15.72525454	     12.77019170	     89.95437384	      0.00000000	      0.00000000	     11.42403182	     14.03781668	      6.31888307	     34.33876288	     89.95437384	      0.00000000	      0.00000000
      1.37000000	     -1.21993406	     -2.39886196	      6.58034403	      0.28685312	      0.93768147	      1.41313015	     24.09347326	     -3.29805723	    -23.54569205	    -20.45069225	     -0.35693191	     -4.57402373	      0.59327633	      1.23937239	    -13.80548171	      6.74154768	     16.67231439	    -22.62834973	     -0.39493921	     -3.40098869	    -11.15764856	    -13.09100405	     -1.81711948	      1.35936532	     -9.94601990	     -6.76820528	     -9.17123099	    -16.50481567	     12.59709663	     89.95437384	      0.00000000	      0.00000000	     10.30810267	     13.38377041	      7.56801767	     33.04671734	     89.95437384	      0.00000000	      0.00000000
      1.38000000	     -1.24507178	     -2.97422326	      6.32249631	      0.29909732	      0.93846895	      1.41602701	     23.85009789	     -2.01988032	    -21.78290058	    -20.90918668	     -0.36493415	     -6.10695629	     -2.37704154	     -8.51255297	    -12.89320859	      8.01353853	     17.32093946	    -25.32538085	     -0.44201128	     -5.74514170	    -10.12684827	    -14.98957758	     -1.43592910	      1.82976796	     -9.58947350	     -6.75596795	     -9.14643502	    -16.33905951	     12.62460911	     89.95437384	      0.00000000	      0.00000000	      9.16092583	     13.01639057	      8.10535217	     31.82630970	     89.95437384	      0.00000000	      0.00000000
      1.39000000	     -1.01385698	     -3.25891753	      6.16342562	      0.31151333	      0.93984427	      1.41833973	     23.28642222	     -1.28078580	    -20.69713295	    -21.81159508	     -0.38068415	     -4.84466238	     -3.36750546	     -8.29315540	    -12.20940686	      8.76411772	     17.11803807	    -27.82783682	     -0.48568738	     -7.89816171	     -8.15213179	    -13.99788436	     -1.37450861	      2.03504703	     -9.25814131	     -6.69177054	     -9.11985127	    -16.18377233	     12.61597078	     89.95437384	      0.00000000	      0.00000000	      8.06612262	     12.67938554	      8.44748484	     30.54807294	     89.95437384	      0.00000000	      0.00000000
